# xmcd
#
# Track frame offsets:
#	150
#	22995
#	39128
#	54083
#	68488
#	87255
#	105873
#	119668
#	142624
#	149733
#	168898
#	189930
#	209098
#	234167
#	250844
#	269648
#	293673
#
# Disc length: 3994 seconds
#
# Revision: 1
# Processed by: cddbd v1.5.1PL0 Copyright (c) Steve Scherf et al.
# Submitted via: CDex 1.50Beta5
#
DISCID=e00f9811
DTITLE=nasiba - samarkand
DYEAR=1900
DGENRE=
TTITLE0=sevgilim
TTITLE1=armonia
TTITLE2=marav
TTITLE3=jonim oladi
TTITLE4=az dastad
TTITLE5=kaidasan
TTITLE6=yokasiz
TTITLE7=umr bakhori
TTITLE8=mugam
TTITLE9=intizor
TTITLE10=amina
TTITLE11=kelasiz
TTITLE12=pazmoni
TTITLE13=jonim
TTITLE14=kurgim kelar
TTITLE15=orizu
TTITLE16=khamma shodand
EXTD=
EXTT0=
EXTT1=
EXTT2=
EXTT3=
EXTT4=
EXTT5=
EXTT6=
EXTT7=
EXTT8=
EXTT9=
EXTT10=
EXTT11=
EXTT12=
EXTT13=
EXTT14=
EXTT15=
EXTT16=
PLAYORDER=
